<?xml version="1.0" encoding="utf-8"?>
<!-- Generator: Adobe Illustrator 22.0.0, SVG Export Plug-In . SVG Version: 6.00 Build 0)  -->
<svg version="1.1" id="Layer_1" xmlns="http://www.w3.org/2000/svg" xmlns:xlink="http://www.w3.org/1999/xlink" x="0px" y="0px"
	 viewBox="0 0 7.2 4.2" style="enable-background:new 0 0 7.2 4.2;" xml:space="preserve">
<style type="text/css">
	.st0{fill:#AAAAAA;}
</style>
<title>angle-down</title>
<path class="st0" d="M7.2,0.8L3.8,4.2c-0.1,0.1-0.2,0.1-0.3,0c0,0,0,0,0,0L0.1,0.8C0,0.7,0,0.7,0,0.6c0-0.1,0-0.1,0.1-0.2l0.4-0.4
	C0.5,0,0.5,0,0.6,0c0.1,0,0.1,0,0.2,0.1l2.8,2.9l2.8-2.9C6.6,0,6.7,0,6.8,0.1c0,0,0,0,0,0l0.4,0.4c0,0,0.1,0.1,0.1,0.2
	C7.2,0.7,7.2,0.7,7.2,0.8z"/>
</svg>
