<?xml version="1.0" encoding="utf-8"?>
<!-- Generator: Adobe Illustrator 22.0.0, SVG Export Plug-In . SVG Version: 6.00 Build 0)  -->
<svg version="1.1" id="Layer_1" xmlns="http://www.w3.org/2000/svg" xmlns:xlink="http://www.w3.org/1999/xlink" x="0px" y="0px"
	 viewBox="0 0 23 23" style="enable-background:new 0 0 23 23;" xml:space="preserve">
<style type="text/css">
	.st0{fill:#FFFFFF;}
</style>
<title>instagram-01</title>
<path class="st0" d="M11.5,2.1c3.1,0,3.4,0,4.6,0.1c0.7,0,1.5,0.1,2.1,0.4c0.5,0.2,0.9,0.5,1.3,0.9c0.4,0.4,0.7,0.8,0.9,1.3
	c0.3,0.7,0.4,1.4,0.4,2.1c0.1,1.2,0.1,1.6,0.1,4.6s0,3.4-0.1,4.6c0,0.7-0.1,1.5-0.4,2.1c-0.4,1-1.2,1.8-2.2,2.2
	c-0.7,0.3-1.4,0.4-2.1,0.4c-1.2,0.1-1.6,0.1-4.6,0.1s-3.4,0-4.7-0.1c-0.7,0-1.5-0.1-2.1-0.4c-0.5-0.2-0.9-0.5-1.3-0.9
	c-0.4-0.4-0.7-0.8-0.9-1.3c-0.3-0.7-0.4-1.4-0.4-2.1c-0.1-1.2-0.1-1.6-0.1-4.6s0-3.4,0.1-4.7c0-0.7,0.1-1.5,0.4-2.1
	C2.7,4.2,3,3.8,3.4,3.4C3.8,3,4.2,2.7,4.7,2.5c0.7-0.3,1.4-0.4,2.1-0.4C8.1,2.1,8.4,2.1,11.5,2.1 M11.5,0C8.4,0,8,0,6.8,0.1
	C5.8,0.1,4.9,0.3,4,0.6C3.2,0.9,2.6,1.3,2,1.9C1.4,2.5,0.9,3.2,0.6,4C0.3,4.9,0.1,5.8,0.1,6.8C0,8,0,8.4,0,11.5s0,3.5,0.1,4.7
	c0,0.9,0.2,1.9,0.5,2.8c0.3,0.8,0.7,1.4,1.3,2c0.6,0.6,1.3,1.1,2.1,1.4c0.9,0.3,1.8,0.5,2.8,0.5C8,23,8.4,23,11.5,23s3.5,0,4.7-0.1
	c0.9,0,1.9-0.2,2.8-0.5c1.6-0.6,2.8-1.8,3.4-3.4c0.3-0.9,0.5-1.8,0.5-2.8C23,15,23,14.6,23,11.5s0-3.5-0.1-4.7
	c0-0.9-0.2-1.9-0.5-2.8c-0.3-0.8-0.7-1.4-1.3-2c-0.6-0.6-1.3-1.1-2.1-1.4c-0.9-0.3-1.8-0.5-2.8-0.5C15,0,14.6,0,11.5,0z"/>
<path class="st0" d="M11.5,5.6c-3.3,0-5.9,2.6-5.9,5.9s2.6,5.9,5.9,5.9s5.9-2.6,5.9-5.9S14.8,5.6,11.5,5.6L11.5,5.6z M11.5,15.3
	c-2.1,0-3.8-1.7-3.8-3.8s1.7-3.8,3.8-3.8s3.8,1.7,3.8,3.8l0,0C15.3,13.6,13.6,15.3,11.5,15.3z"/>
<circle class="st0" cx="17.6" cy="5.4" r="1.4"/>
</svg>
