<?xml version="1.0" encoding="utf-8"?>
<!-- Generator: Adobe Illustrator 22.0.0, SVG Export Plug-In . SVG Version: 6.00 Build 0)  -->
<svg version="1.1" id="Layer_1" xmlns="http://www.w3.org/2000/svg" xmlns:xlink="http://www.w3.org/1999/xlink" x="0px" y="0px"
	 viewBox="0 0 20.6 19.6" style="enable-background:new 0 0 20.6 19.6;" xml:space="preserve">
<style type="text/css">
	.st0{fill:#595959;}
</style>
<title>linkedin</title>
<path class="st0" d="M2.5,4.6L2.5,4.6C1.2,4.7,0.1,3.7,0,2.5c0-0.1,0-0.1,0-0.2C0,1,1,0,2.3,0c0.1,0,0.1,0,0.2,0
	C3.7-0.1,4.9,0.8,5,2c0,0.1,0,0.2,0,0.3c0,1.3-1,2.3-2.3,2.3C2.6,4.6,2.5,4.6,2.5,4.6z M4.7,19.7H0.2V6.4h4.4V19.7z M20.6,19.7h-4.4
	v-7.1c0-1.8-0.6-3-2.2-3c-1,0-1.9,0.7-2.3,1.6c-0.1,0.3-0.2,0.7-0.1,1.1v7.4H7.1c0.1-12,0-13.3,0-13.3h4.4v1.9l0,0
	c0.8-1.4,2.4-2.3,4-2.2c2.9,0,5.1,1.9,5.1,6L20.6,19.7z"/>
</svg>
