<?xml version="1.0" encoding="utf-8"?>
<!-- Generator: Adobe Illustrator 22.0.0, SVG Export Plug-In . SVG Version: 6.00 Build 0)  -->
<svg version="1.1" id="Layer_1" xmlns="http://www.w3.org/2000/svg" xmlns:xlink="http://www.w3.org/1999/xlink" x="0px" y="0px"
	 viewBox="0 0 14 14" style="enable-background:new 0 0 14 14;" xml:space="preserve">
<style type="text/css">
	.st0{fill:#FFFFFF;}
</style>
<title>search</title>
<path class="st0" d="M10,8.8l4,4L12.8,14l-4-4V9.4L8.6,9.2c-0.9,0.8-2.1,1.3-3.4,1.2c-1.4,0-2.7-0.5-3.7-1.5C0.5,7.9,0,6.6,0,5.2
	c0-1.4,0.5-2.7,1.5-3.7c1-1,2.3-1.6,3.7-1.5c1.4,0,2.7,0.5,3.7,1.5c1,1,1.5,2.3,1.5,3.7c0,1.2-0.4,2.4-1.2,3.4l0.2,0.2L10,8.8z
	 M2.7,7.8c0.7,0.7,1.6,1.1,2.6,1c1,0,1.9-0.4,2.6-1c0.7-0.7,1.1-1.6,1-2.6c0-1-0.4-1.9-1-2.6C7.1,2,6.2,1.6,5.2,1.6
	c-1,0-1.9,0.4-2.6,1.1C2,3.3,1.6,4.3,1.6,5.2C1.6,6.2,2,7.1,2.7,7.8z"/>
</svg>
