<?xml version="1.0" encoding="utf-8"?>
<!-- Generator: Adobe Illustrator 22.0.0, SVG Export Plug-In . SVG Version: 6.00 Build 0)  -->
<svg version="1.1" id="Layer_1" xmlns="http://www.w3.org/2000/svg" xmlns:xlink="http://www.w3.org/1999/xlink" x="0px" y="0px"
	 viewBox="0 0 19.9 24" style="enable-background:new 0 0 19.9 24;" xml:space="preserve">
<style type="text/css">
	.st0{fill:#FFFFFF;}
</style>
<title>youtube</title>
<path class="st0" d="M19.5,21.8c-0.2,1-1.1,1.8-2.1,1.9c-2.5,0.2-5,0.3-7.4,0.3c-2.5,0-5,0-7.4-0.3c-1.1-0.1-1.9-0.9-2.1-1.9
	c-0.3-1.5-0.4-3.1-0.3-4.7c-0.1-1.6,0.1-3.1,0.3-4.7c0.2-1.1,1.1-1.9,2.2-2c2.5-0.2,4.9-0.3,7.4-0.3c2.5,0,5,0,7.4,0.3
	c1.1,0.1,1.9,0.9,2.1,2c0.3,1.5,0.4,3.1,0.4,4.7C19.9,18.7,19.8,20.2,19.5,21.8z M5.7,13.8v-1.3H1.5v1.3h1.4v7.6h1.3v-7.6L5.7,13.8z
	 M7.8,0L6.2,5.3V9H4.9V5.3c-0.2-1-0.5-1.9-0.8-2.8C3.8,1.7,3.5,0.8,3.2,0h1.4l1,3.5L6.5,0H7.8z M9.3,21.4v-6.6H8.1v5.1
	c-0.3,0.4-0.5,0.6-0.8,0.6S7,20.3,7,20.1c0-0.2,0-0.3,0-0.5v-4.9H5.8V20c0,0.3,0,0.7,0.1,1c0.1,0.3,0.4,0.5,0.8,0.5
	c0.6-0.1,1-0.4,1.4-0.8v0.7L9.3,21.4z M11.4,6.8c0,0.6-0.1,1.1-0.4,1.6c-0.3,0.5-0.9,0.7-1.4,0.7c-0.6,0-1.1-0.2-1.4-0.7
	C8,7.9,7.8,7.4,7.9,6.8V4.5c0-0.6,0.1-1.1,0.4-1.6c0.3-0.4,0.9-0.7,1.4-0.7c0.6,0,1.1,0.2,1.4,0.7c0.3,0.5,0.4,1,0.4,1.6L11.4,6.8z
	 M10.2,4.2c0-0.6-0.2-0.9-0.6-0.9S9.1,3.6,9.1,4.2V7c0,0.6,0.2,0.9,0.6,0.9s0.6-0.3,0.6-0.9V4.2z M13.8,16.8c0-0.4,0-0.9-0.1-1.3
	c-0.1-0.5-0.5-0.8-1-0.8c-0.5,0-1,0.3-1.2,0.7v-2.9h-1.1v8.9h1.2v-0.6c0.3,0.4,0.7,0.7,1.2,0.7c0.5,0,0.9-0.3,1-0.7
	c0.1-0.4,0.1-0.9,0.1-1.3L13.8,16.8z M12.6,19.5c0,0.6-0.2,0.9-0.5,0.9c-0.2,0-0.4-0.1-0.6-0.3v-4c0.2-0.2,0.4-0.3,0.6-0.3
	c0.4,0,0.5,0.3,0.5,0.9V19.5z M15.9,9h-1.2V8.2c-0.3,0.5-0.8,0.8-1.4,0.8c-0.3,0-0.7-0.2-0.8-0.5c-0.1-0.3-0.1-0.7-0.1-1V2.3h1.2
	v4.9c0,0.2,0,0.3,0,0.5c0,0.2,0.1,0.3,0.3,0.3s0.5-0.2,0.8-0.6V2.3h1.2L15.9,9z M18.4,19.1h-1.2c0,0.3,0,0.5,0,0.8
	c0,0.3-0.3,0.5-0.5,0.5c-0.4,0-0.6-0.3-0.6-0.9v-1.2h2.4v-1.4c0-0.5-0.1-1.1-0.4-1.6c-0.6-0.8-1.8-0.9-2.6-0.3
	c-0.1,0.1-0.2,0.2-0.3,0.3c-0.3,0.5-0.4,1-0.4,1.6v2.3c0,0.5,0.1,1.1,0.4,1.5c0.3,0.5,0.9,0.7,1.5,0.7c0.6,0,1.1-0.2,1.5-0.7
	c0.2-0.2,0.2-0.5,0.3-0.7c0-0.3,0-0.5,0-0.8L18.4,19.1z M17.2,17.3H16v-0.6c0-0.6,0.2-0.9,0.6-0.9s0.6,0.3,0.6,0.9L17.2,17.3z"/>
</svg>
